<svg width="33" height="32" viewBox="0 0 33 32" fill="none" xmlns="http://www.w3.org/2000/svg">
<g clip-path="url(#clip0_8_507)">
<path d="M15.9999 0C7.17883 0 0 7.17883 0 15.9999C0 24.8209 7.17883 31.9998 15.9999 31.9998C24.8678 32.0467 32.0467 24.8678 32.0467 15.9999C32.0467 7.13191 24.8678 0 15.9999 0ZM15.9999 27.8239C9.52485 27.8239 4.22284 22.5218 4.22284 15.9999C4.22284 9.52485 9.52485 4.22284 15.9999 4.22284C22.5218 4.22284 27.8239 9.52485 27.8239 15.9999C27.8239 22.5218 22.5218 27.8239 15.9999 27.8239Z" fill="#E31E26"/>
<path d="M19.9881 15.343C21.8279 15.343 23.3195 13.8515 23.3195 12.0117C23.3195 10.1718 21.8279 8.6803 19.9881 8.6803C18.1483 8.6803 16.6567 10.1718 16.6567 12.0117C16.6567 13.8515 18.1483 15.343 19.9881 15.343Z" fill="#E31E26"/>
<path d="M19.9881 23.3195C21.8279 23.3195 23.3195 21.8279 23.3195 19.9881C23.3195 18.1483 21.8279 16.6567 19.9881 16.6567C18.1483 16.6567 16.6567 18.1483 16.6567 19.9881C16.6567 21.8279 18.1483 23.3195 19.9881 23.3195Z" fill="#E31E26"/>
<path d="M12.0116 23.3195C13.8515 23.3195 15.343 21.8279 15.343 19.9881C15.343 18.1483 13.8515 16.6567 12.0116 16.6567C10.1718 16.6567 8.68024 18.1483 8.68024 19.9881C8.68024 21.8279 10.1718 23.3195 12.0116 23.3195Z" fill="#E31E26"/>
<path d="M12.0116 15.343C13.8515 15.343 15.343 13.8515 15.343 12.0117C15.343 10.1718 13.8515 8.6803 12.0116 8.6803C10.1718 8.6803 8.68024 10.1718 8.68024 12.0117C8.68024 13.8515 10.1718 15.343 12.0116 15.343Z" fill="#E31E26"/>
</g>
<defs>
<clipPath id="clip0_8_507">
<rect width="32.0467" height="32" fill="white"/>
</clipPath>
</defs>
</svg>
